<svg width="48" height="48" xmlns="http://www.w3.org/2000/svg">

 <g>
  <title>background</title>
  <rect fill="none" id="canvas_background" height="402" width="582" y="-1" x="-1"/>
 </g>
 <g>
  <title>Layer 1</title>
  <path fill="#ffffff" id="svg_1" fill-rule="evenodd" d="m37,47l-26,0c-2.209,0 -4,-1.791 -4,-4l0,-35c0,-2.209 1.791,-4 4,-4l3,0l0,0c0.553,0 1,0.448 1,1s-0.447,1 -1,1l0,0l-3,0c-1.104,0 -2,0.896 -2,2l0,35c0,1.104 0.896,2 2,2l26,0c1.104,0 2,-0.896 2,-2l0,-35c0,-1.104 -0.896,-2 -2,-2l-3,0l0,0c-0.553,0 -1,-0.448 -1,-1s0.447,-1 1,-1c0,0 0,0 0.001,0l2.999,0c2.209,0 4,1.791 4,4l0,35c0,2.209 -1.791,4 -4,4zm-2,-38c0,0.552 -0.447,1 -1,1l-20,0c-0.553,0 -1,-0.448 -1,-1s0.447,-1 1,-1c0,0 1.125,-0.125 2,-1l2,-2c0,0 0.781,-1 2,-1l1,0c0,-1.657 1.344,-3 3,-3c1.657,0 3,1.343 3,3l1,0c1.312,0 2,1 2,1l2,2c0.875,0.875 2,1 2,1c0.553,0 1,0.448 1,1zm-11,-6c-0.553,0 -1,0.448 -1,1l2,0c0,-0.552 -0.447,-1 -1,-1zm5.363,4c0,0 -0.679,-1 -1.817,-1l-7.091,0c-1.14,0 -1.818,1 -1.818,1l-0.909,1l12.545,0l-0.91,-1z" clip-rule="evenodd"/>
 </g>
</svg>