<svg width="64" height="64" xmlns="http://www.w3.org/2000/svg">

 <g>
  <title>background</title>
  <rect fill="none" id="canvas_background" height="402" width="582" y="-1" x="-1"/>
 </g>
 <g>
  <title>Layer 1</title>
  <path fill="#ffffff" id="svg_1" d="m25.5,27l2,0c0,-2.757 -2.243,-5 -5,-5s-5,2.243 -5,5l2,0c0,-1.654 1.346,-3 3,-3s3,1.346 3,3z"/>
  <path fill="#ffffff" id="svg_2" d="m41.5,22c-2.757,0 -5,2.243 -5,5l2,0c0,-1.654 1.346,-3 3,-3s3,1.346 3,3l2,0c0,-2.757 -2.243,-5 -5,-5z"/>
  <path fill="#ffffff" id="svg_3" d="m32,4c-15.439,0 -28,12.561 -28,28s12.561,28 28,28s28,-12.561 28,-28s-12.561,-28 -28,-28zm0,54c-14.337,0 -26,-11.664 -26,-26s11.663,-26 26,-26s26,11.664 26,26s-11.663,26 -26,26z"/>
  <path fill="#ffffff" id="svg_4" d="m32,43c-3.629,-0.002 -9,-0.958 -9,-3l-2,0c0,4.86 9.874,5 11,5s11,-0.14 11,-5l-2,0c0,2.042 -5.371,2.998 -9,3z"/>
 </g>
</svg>